<?xml version="1.0" standalone="no"?><!DOCTYPE svg PUBLIC "-//W3C//DTD SVG 1.1//EN" "http://www.w3.org/Graphics/SVG/1.1/DTD/svg11.dtd"><svg t="1671261834405" class="icon" viewBox="0 0 1052 1024" version="1.1" xmlns="http://www.w3.org/2000/svg" p-id="3834" xmlns:xlink="http://www.w3.org/1999/xlink" width="205.46875" height="200"><path d="M512.568889 857.514667l-115.598222-223.857778s-125.155556 55.893333-168.590223 89.514667c-43.434667 33.649778-62.634667 135.765333-62.634666 135.765333h694.897778s-12.743111-96.142222-63.829334-135.765333c-43.434667-33.621333-168.618667-89.543111-168.618666-89.543112l-115.598223 223.886223z m0-179.114667l-38.542222 44.771556 19.285333 44.8-57.799111 89.543111h154.168889L531.825778 768l19.256889-44.8-38.513778-44.771556z m4.152889-513.336889c169.728 0 170.012444 149.560889 170.012444 233.614222 0 84.081778-67.982222 240.298667-170.012444 240.497778-102.001778 0.199111-170.012444-156.416-170.012445-240.497778 0-84.053333 0.284444-233.614222 170.012445-233.614222z" fill="#333333" p-id="3835"></path></svg>