<?xml version="1.0" standalone="no"?><svg data-noselect="" 
  viewBox="124.21052631578999 -107.12529147723498 1040.57674050379 780" 
  width="1040.57674050379" 
  height="780" 
  ref="svg_canvas" 
  preserveAspectRatio="none" 
  version="1.1" xmlns="http://www.w3.org/2000/svg" 
  style="background: #FFFFFF;">
    <defs></defs>
    <g id="shape_T4m9c7b9Wf" class=""  ref="shape_T4m9c7b9Wf" key="shape_T4m9c7b9Wf" transform="translate(204.21052631579,218.73311560241) rotate(0,80,64.141592920354) scale(1,1)" style="cursor:move;display:inline;opacity:1;" filter="">
            <g style="display:inline"><rect fill="rgba(0,0,0,0)" width="180" height="148.28318584070794" x="-10" y="-10"></rect><svg version="1.1" id="图层_1" xmlns="http://www.w3.org/2000/svg" xmlns:xlink="http://www.w3.org/1999/xlink" x="0px" y="0px" viewBox="0 0 56.5 45.3" style="enable-background:new 0 0 56.5 45.3;" xml:space="preserve" width="160" height="128.28318584070794" class="style-removed" preserveAspectRatio="none" data-parent="shape_T4m9c7b9Wf">

<g>
	<g>
		<g>
			<g>
				<path d="M26.2,42.5c2.7,1.2,2.7,1.4,2.7,1.5c-0.3,0.3-3.6-1.1-5-2.1c-0.2-0.1-0.2-0.2-0.2-0.2
					C23.8,41.6,23.9,41.5,26.2,42.5" fill="#0063DC" stroke-width="0"></path>
			</g>
		</g>
		<g>
			<g>
				<path d="M25.6,39.9c1.2,0.8,2.4,2,1.5,2.2c-1.1,0.2-4.4-1.5-4.7-2.9C22.4,38.3,24.1,38.8,25.6,39.9" fill="#0063DC" stroke-width="0"></path>
			</g>
		</g>
		<g>
			<g>
				<path d="M27.1,36.3c1.3,1.4,1.4,2.9-0.2,2.9c-1.7-0.1-4.3-2.1-3.6-3.7C24,34.4,25.9,35,27.1,36.3" fill="#0063DC" stroke-width="0"></path>
			</g>
		</g>
		<g>
			<g>
				<path d="M35.3,45c0.8,0,1.4-0.1,2-0.1c0.7,0,0.8,0,0.9,0c-0.1,0.2-2.1,0.6-5,0.2c-0.2,0-0.3,0-0.3-0.1
					c0.1,0,0.1,0,0.9,0C34.2,45,34.7,45,35.3,45" fill="#0063DC" stroke-width="0"></path>
			</g>
		</g>
		<g>
			<g>
				<path d="M33.3,44.1c2.2,0.3,2.6,0.3,2.7,0.4c-0.2,0.5-4.2,0.4-5.6-0.4c-0.1-0.1-0.3-0.2,0.1-0.3
					C31,43.8,32.4,44,33.3,44.1" fill="#0063DC" stroke-width="0"></path>
			</g>
		</g>
		<g>
			<g>
				<path d="M32.5,42.5c1.2,0.4,2.5,0.9,2,1.2c-0.9,0.4-5-0.1-5.5-1.3C29,41.7,30.4,41.8,32.5,42.5" fill="#0063DC" stroke-width="0"></path>
			</g>
		</g>
		<g>
			<g>
				<path d="M33.3,40c0.6,0.4,2,1.6,0.9,1.9c-1.6,0.4-5.1-1-4.7-2.4C30.1,38.7,31.9,39.1,33.3,40" fill="#0063DC" stroke-width="0"></path>
			</g>
		</g>
		<g>
			<g>
				<path d="M36,37c0.9,1.3,0.7,2.9-1.4,2.5c-1.8-0.3-3.6-2-2.5-3.4C33.2,35.1,35.1,35.7,36,37" fill="#0063DC" stroke-width="0"></path>
			</g>
		</g>
		<g>
			<g>
				<path d="M40.8,43.6c1.1-0.2,1.5-0.3,2.6-0.7c-0.9,0.5-4.4,1.6-5.8,1.4c0,0-0.1,0-0.1,0
					C37.6,44.3,37.6,44.3,40.8,43.6" fill="#0063DC" stroke-width="0"></path>
			</g>
		</g>
		<g>
			<g>
				<path d="M39.5,42.2c1.6,0.5,1.7,0.6,1.7,0.6c-0.3,0.4-4.9,0.2-5-0.7c0,0,0-0.1,0-0.1
					C36.3,41.8,36.8,41.4,39.5,42.2" fill="#0063DC" stroke-width="0"></path>
			</g>
		</g>
		<g>
			<g>
				<path d="M40.5,40.6c0.5,0.5,1.2,1.4,0.3,1.4c-1.5,0-4.1-1.1-3.3-2.1C38.1,39.3,39.5,39.6,40.5,40.6" fill="#0063DC" stroke-width="0"></path>
			</g>
		</g>
		<g>
			<g>
				<g>
					<path d="M21,5.4c0.4-0.5,0.7-0.6,0.8-0.7c-1,0.8-1.1,0.9-1.9,1.7l-0.6,0.6c-0.2,0.2-0.6,0.6-0.6,0.8c0,0,0,0,0,0
						C18.8,7.7,18.8,7.7,21,5.4z" fill="#0063DC" stroke-width="0"></path>
				</g>
			</g>
			<g>
				<g>
					<path d="M24.3,3.2c0.3-0.4,0.4-0.4,0.4-0.4c-0.9,0.5-1.1,0.6-1.9,1.2c-0.7,0.5-1,0.9-1,1
						C21.8,5.2,23,4.5,24.3,3.2z" fill="#0063DC" stroke-width="0"></path>
				</g>
			</g>
			<g>
				<g>
					<path d="M27.4,1.6c0-0.1-0.1,0-0.2,0c-0.2,0.1-0.4,0.2-0.5,0.2c-0.3,0.1-0.7,0.3-0.9,0.4
						c-0.6,0.3-0.5,0.4-0.5,0.5C25.5,2.9,27.4,1.9,27.4,1.6z" fill="#0063DC" stroke-width="0"></path>
				</g>
			</g>
			<g>
				<g>
					<path d="M29.9,0.7c0,0,0,0-0.2,0c0,0-0.1,0-0.1,0l0,0c-0.3,0.1-0.3,0.1-1,0.3c-0.2,0.1-0.5,0.2-0.7,0.3
						c0,0,0.1,0,0.3,0C29.3,1.1,29.9,0.8,29.9,0.7z" fill="#0063DC" stroke-width="0"></path>
				</g>
			</g>
			<g>
				<g>
					<path d="M15.6,13.1c0.2-0.6,0.5-1.5,0.5-1.8c0,0,0,0,0,0c-0.1,0-0.1,0.1-0.2,0.3c-0.2,0.3-0.2,0.4-0.4,0.8
						l-0.2,0.4c-0.2,0.5-0.5,1.2-0.7,1.7c-0.1,0.1-0.5,1.3-0.5,1.7c0,0,0.1,0.1,0.1,0.1C14.4,16.2,15.1,14.6,15.6,13.1z" fill="#0063DC" stroke-width="0"></path>
				</g>
			</g>
			<g>
				<g>
					<path d="M16.5,12.4c0.3,0.7,2-1.1,2.7-3.1v0c0.1-0.4,0.2-0.8,0.2-1c0-0.5-0.3-0.5-0.9,0.1
						C17.2,9.7,16.3,11.8,16.5,12.4z" fill="#0063DC" stroke-width="0"></path>
				</g>
			</g>
			<g>
				<g>
					<path d="M24,5.7c0.2-0.7-0.3-1.4-1.7-0.4c-1.5,1.1-2.2,2.6-1.9,3.1C21.1,9.3,23.7,7.3,24,5.7z" fill="#0063DC" stroke-width="0"></path>
				</g>
			</g>
			<g>
				<g>
					<path d="M28.9,2.9c-0.1-0.5-1.1-0.8-2.4-0.2c-1.4,0.8-1.7,1.8-1,2.2C26.6,5.5,29.3,4,28.9,2.9z" fill="#0063DC" stroke-width="0"></path>
				</g>
			</g>
			<g>
				<g>
					<path d="M32.1,2.3c1.1-0.3,1.6-0.9,1-1.3c-0.5-0.3-1.9-0.4-3,0c-0.1,0.1-0.4,0.2-0.6,0.4
						C29.2,2.1,30.5,2.7,32.1,2.3z" fill="#0063DC" stroke-width="0"></path>
				</g>
			</g>
			<g>
				<g>
					<path d="M36.8,0.6c0.3-0.2,0-0.4-0.7-0.5c-1.1-0.2-2.8-0.1-3.4,0c-0.1,0-0.1,0-0.2,0.1C32.8,0.6,36,1,36.8,0.6z" fill="#0063DC" stroke-width="0"></path>
				</g>
			</g>
			<g>
				<g>
					<path d="M17.5,13.2c-1.4,1.5-1.8,3.9-1,4.7c1,1.1,3-1.4,3.1-3.7C19.6,13,18.8,12,17.5,13.2z" fill="#0063DC" stroke-width="0"></path>
				</g>
			</g>
			<g>
				<g>
					<path d="M22.5,9c-1.8,1.4-2.2,3.4-1.3,4.1c1.4,1.1,4.5-1.3,4.3-3.4C25.4,8.7,24.3,7.8,22.5,9z" fill="#0063DC" stroke-width="0"></path>
				</g>
			</g>
			<g>
				<g>
					<path d="M31.8,6c-0.3-0.9-1.7-1.7-3.6-0.7c-1.8,1.1-1.9,2.8-0.8,3.4C29.2,9.7,32.3,7.8,31.8,6z" fill="#0063DC" stroke-width="0"></path>
				</g>
			</g>
			<g>
				<g>
					<path d="M33.6,2.7c-0.1,0.1-0.3,0.2-0.5,0.3c-1.1,0.9-0.4,2.3,1.5,2.6c2,0.3,3.7-1,2.8-2.1
						C36.8,2.6,35,2.1,33.6,2.7z" fill="#0063DC" stroke-width="0"></path>
				</g>
			</g>
			<g>
				<g>
					<path d="M41.7,3.3c0.9-0.2,1-0.8,0.2-1.4c-0.9-0.7-2.9-1.2-4-0.9c-0.2,0.1-0.3,0.1-0.4,0.2
						C36.8,2.1,39.7,3.8,41.7,3.3z" fill="#0063DC" stroke-width="0"></path>
				</g>
			</g>
			<g>
				<g>
					<path d="M45.5,2.5C45.5,2.5,45.5,2.5,45.5,2.5c-1.3-0.8-2.6-1.4-4-1.8c-0.6-0.1-0.8-0.2-0.9-0.2c0,0-0.1,0-0.1,0
						C40.5,1,44.8,2.8,45.5,2.5z" fill="#0063DC" stroke-width="0"></path>
				</g>
			</g>
			<g>
				<g>
					<path d="M21.9,22.1c0.1-0.6,0.2-1.2,0-1.9c-0.4-1.7-1.8-2.6-3.3-1.2c-0.2,0.2-0.4,0.5-0.5,0.7
						c0.4,0.3,0.8,0.6,1.2,0.9C20.1,21.1,20.9,21.6,21.9,22.1z" fill="#0063DC" stroke-width="0"></path>
				</g>
			</g>
			<g>
				<g>
					<path d="M23.8,18.9c2,1.3,5.2-1.2,4.7-3.8c-0.3-1.4-1.9-2.6-4.1-1.2C22.4,15.6,22.4,18,23.8,18.9z" fill="#0063DC" stroke-width="0"></path>
				</g>
			</g>
			<g>
				<g>
					<path d="M30.6,14c2.2,1.4,5.5-0.7,4.9-3.1c-0.3-1.3-2.2-2.4-4.3-1.3C29.1,10.9,29.2,13.1,30.6,14z" fill="#0063DC" stroke-width="0"></path>
				</g>
			</g>
			<g>
				<g>
					<path d="M42,7.8c-0.5-1.2-2.4-2.3-4.4-1.5c-2,1-1.5,3.3,0.5,4.1C40.4,11.3,42.8,9.7,42,7.8z" fill="#0063DC" stroke-width="0"></path>
				</g>
			</g>
			<g>
				<g>
					<path d="M43.1,4.2c-0.1,0-0.2,0.1-0.3,0.1c-1.3,0.8,0.4,3.2,2.6,3.7c1.8,0.4,2.8-0.6,1.9-2
						C46.5,5,44.6,3.8,43.1,4.2z" fill="#0063DC" stroke-width="0"></path>
				</g>
			</g>
			<g>
				<g>
					<path d="M50.9,7.1c-1.1-1.4-2.4-2.6-3.8-3.6c-0.1,0-0.2,0-0.3,0c-0.1,0-0.2,0-0.2,0.1C46.1,4.2,49.5,7.1,50.9,7.1
						z" fill="#0063DC" stroke-width="0"></path>
				</g>
			</g>
			<g>
				<g>
					<path d="M18.9,34.8c-0.6-0.6-1.7-1.4-1.7-0.4c0.2,1.6,2.6,4.1,3.6,4.2c0.8,0.1,0.1-1.6-1.1-3
						C19.4,35.3,19.1,35,18.9,34.8z" fill="#0063DC" stroke-width="0"></path>
				</g>
			</g>
			<g>
				<g>
					<path d="M32.5,21.5c-0.4-1.6-2.4-2.9-4.6-1.5c-1.7,1.4-1.7,3.4-0.7,4.6c0.7,0.3,1.5,0.6,2.3,0.9
						C31.4,25.5,33,23.6,32.5,21.5z" fill="#0063DC" stroke-width="0"></path>
				</g>
			</g>
			<g>
				<g>
					<path d="M34.6,20.5c2.3,1.5,5.4-0.5,4.9-3.1v0c-0.3-1.6-2.2-3.1-4.5-1.9C32.8,16.8,33,19.4,34.6,20.5z" fill="#0063DC" stroke-width="0"></path>
				</g>
			</g>
			<g>
				<g>
					<path d="M14.1,16.4C14.1,16.4,14.1,16.4,14.1,16.4c0-0.1,0-0.1,0-0.1C14,16.4,14,16.4,14.1,16.4z" fill="#0063DC" stroke-width="0"></path>
				</g>
			</g>
			<g>
				<g>
					<path d="M14.8,28.9c-0.3-0.1-0.6-0.3-0.9-0.4c0.4,1.8,1.7,4.9,2.1,4.9c0.3,0.1,0-1.7-0.8-3.5
						C15.1,29.5,15,29.2,14.8,28.9z" fill="#0063DC" stroke-width="0"></path>
				</g>
			</g>
			<g>
				<g>
					<path d="M18.2,30.3c-0.6,1.7,1,4.2,2.5,4.6c1.6,0.4,1.9-1.6,1-3.3C20.5,31.2,19.3,30.7,18.2,30.3z" fill="#0063DC" stroke-width="0"></path>
				</g>
			</g>
			<g>
				<g>
					<path d="M28.4,35.4c1.5,0.5,2.5-0.2,2.8-1.3c-1.8-0.4-3.5-0.8-5.1-1.2C26.3,34.1,27.3,35.1,28.4,35.4z" fill="#0063DC" stroke-width="0"></path>
				</g>
			</g>
		</g>
		<g>
			<g>
				<path d="M15,6.1c0,0-14.1-2.6-15,6.3s23.4,24.1,56.4,22.2c0,0-28.1-4.8-40.2-12.9C4.9,14.1,5.6,8.1,15,6.1z" fill="#0063DC" stroke-width="0"></path>
			</g>
		</g>
	</g>
</g>
</svg></g>
        </g><g id="shape_rqjy8kmZzg" class="brand_slogan"  ref="shape_rqjy8kmZzg" key="shape_rqjy8kmZzg" transform="translate(311.03421052632,256.36167409903504) rotate(0,137.13630002503,77.04916992187499) scale(1,1)" style="cursor:move;display:inline;opacity:1;" filter="">
            <g style="display:inline"><svg xmlns="http://www.w3.org/2000/svg" version="1.1" xmlns:xlink="http://www.w3.org/1999/xlink" width="830.5999999999999" height="154.09833984374998" viewBox="0 0 830.5999999999999 154.09833984374998" preserveAspectRatio="none" data-parent="shape_rqjy8kmZzg"><rect fill="rgba(0,0,0,0)" width="744" height="21" x="21.65" y="66.54916992187499"></rect><g data-width="743.3796433593749" transform="translate(21.65, 0)"><path d="M8.20 0L6.10 0L0.10-15.50L2.32-15.50L6.34-4.24Q6.83-2.89 7.16-1.70L7.16-1.70Q7.52-2.97 7.99-4.24L7.99-4.24L12.18-15.50L14.27-15.50L8.20 0Z" transform="translate(0 84.54916992187499) skewX(0)" fill="#0063dc" stroke="#0063dc" stroke-width="0.036" data-glyph-w="14.440380859374999" data-glyph-h="24.187109375" data-glyph-ascender="19.599169921875" data-glyph-descender="-4.587939453124999"></path><path d="M13.28 0L1.71 0L1.71-15.50L12.92-15.50L12.92-13.67L3.76-13.67L3.76-8.92L12.34-8.92L12.34-7.10L3.76-7.10L3.76-1.83L13.28-1.83L13.28 0Z" transform="translate(14.440380859374999 84.54916992187499) skewX(0)" fill="#0063dc" stroke="#0063dc" stroke-width="0.036" data-glyph-w="14.440380859374999" data-glyph-h="24.187109375" data-glyph-ascender="19.599169921875" data-glyph-descender="-4.587939453124999"></path><path d="M3.75 0L1.70 0L1.70-15.50L8.57-15.50Q10.65-15.50 11.72-15.08Q12.80-14.66 13.45-13.61Q14.09-12.55 14.09-11.27L14.09-11.27Q14.09-9.62 13.02-8.49Q11.96-7.36 9.73-7.05L9.73-7.05Q10.54-6.66 10.96-6.28L10.96-6.28Q11.86-5.45 12.66-4.22L12.66-4.22L15.36 0L12.78 0L10.73-3.22Q9.83-4.62 9.25-5.36Q8.67-6.10 8.21-6.40Q7.75-6.69 7.27-6.81L7.27-6.81Q6.92-6.88 6.13-6.88L6.13-6.88L3.75-6.88L3.75 0ZM3.75-13.78L3.75-8.66L8.16-8.66Q9.57-8.66 10.36-8.95Q11.15-9.24 11.56-9.88Q11.98-10.52 11.98-11.27L11.98-11.27Q11.98-12.37 11.18-13.08Q10.38-13.78 8.66-13.78L8.66-13.78L3.75-13.78Z" transform="translate(28.880761718749998 84.54916992187499) skewX(0)" fill="#0063dc" stroke="#0063dc" stroke-width="0.036" data-glyph-w="15.6349365234375" data-glyph-h="24.187109375" data-glyph-ascender="19.599169921875" data-glyph-descender="-4.587939453124999"></path><path d="M4.07 0L2.02 0L2.02-15.50L4.07-15.50L4.07 0Z" transform="translate(44.5156982421875 84.54916992187499) skewX(0)" fill="#0063dc" stroke="#0063dc" stroke-width="0.036" data-glyph-w="6.015063476562499" data-glyph-h="24.187109375" data-glyph-ascender="19.599169921875" data-glyph-descender="-4.587939453124999"></path><path d="M3.83 0L1.78 0L1.78-15.50L12.23-15.50L12.23-13.67L3.83-13.67L3.83-8.87L11.10-8.87L11.10-7.04L3.83-7.04L3.83 0Z" transform="translate(50.53076171875 84.54916992187499) skewX(0)" fill="#0063dc" stroke="#0063dc" stroke-width="0.036" data-glyph-w="13.224682617187499" data-glyph-h="24.187109375" data-glyph-ascender="19.599169921875" data-glyph-descender="-4.587939453124999"></path><path d="M4.07 0L2.02 0L2.02-15.50L4.07-15.50L4.07 0Z" transform="translate(63.7554443359375 84.54916992187499) skewX(0)" fill="#0063dc" stroke="#0063dc" stroke-width="0.036" data-glyph-w="6.015063476562499" data-glyph-h="24.187109375" data-glyph-ascender="19.599169921875" data-glyph-descender="-4.587939453124999"></path><path d="M12.73-5.43L12.73-5.43L14.78-4.92Q14.13-2.39 12.46-1.06Q10.78 0.26 8.36 0.26L8.36 0.26Q5.86 0.26 4.29-0.76Q2.72-1.78 1.90-3.71Q1.08-5.65 1.08-7.87L1.08-7.87Q1.08-10.29 2.00-12.09Q2.93-13.89 4.64-14.83Q6.34-15.76 8.39-15.76L8.39-15.76Q10.72-15.76 12.30-14.58Q13.89-13.39 14.51-11.25L14.51-11.25L12.50-10.77Q11.96-12.46 10.93-13.24Q9.91-14.01 8.35-14.01L8.35-14.01Q6.56-14.01 5.36-13.15Q4.17-12.29 3.68-10.85Q3.19-9.41 3.19-7.88L3.19-7.88Q3.19-5.90 3.77-4.42Q4.34-2.95 5.56-2.22Q6.78-1.49 8.19-1.49L8.19-1.49Q9.92-1.49 11.11-2.48Q12.30-3.48 12.73-5.43Z" transform="translate(69.7705078125 84.54916992187499) skewX(0)" fill="#0063dc" stroke="#0063dc" stroke-width="0.036" data-glyph-w="15.6349365234375" data-glyph-h="24.187109375" data-glyph-ascender="19.599169921875" data-glyph-descender="-4.587939453124999"></path><path d="M2.15 0L-0.03 0L5.92-15.50L8.13-15.50L14.47 0L12.14 0L10.33-4.69L3.85-4.69L2.15 0ZM6.14-10.91L4.44-6.36L9.69-6.36L8.08-10.66Q7.34-12.61 6.98-13.87L6.98-13.87Q6.68-12.38 6.14-10.91L6.14-10.91Z" transform="translate(85.4054443359375 84.54916992187499) skewX(0)" fill="#0063dc" stroke="#0063dc" stroke-width="0.036" data-glyph-w="14.440380859374999" data-glyph-h="24.187109375" data-glyph-ascender="19.599169921875" data-glyph-descender="-4.587939453124999"></path><path d="M7.66 0L5.61 0L5.61-13.67L0.51-13.67L0.51-15.50L12.79-15.50L12.79-13.67L7.66-13.67L7.66 0Z" transform="translate(99.8458251953125 84.54916992187499) skewX(0)" fill="#0063dc" stroke="#0063dc" stroke-width="0.036" data-glyph-w="13.224682617187499" data-glyph-h="24.187109375" data-glyph-ascender="19.599169921875" data-glyph-descender="-4.587939453124999"></path><path d="M4.07 0L2.02 0L2.02-15.50L4.07-15.50L4.07 0Z" transform="translate(113.0705078125 84.54916992187499) skewX(0)" fill="#0063dc" stroke="#0063dc" stroke-width="0.036" data-glyph-w="6.015063476562499" data-glyph-h="24.187109375" data-glyph-ascender="19.599169921875" data-glyph-descender="-4.587939453124999"></path><path d="M1.05-7.55L1.05-7.55Q1.05-11.41 3.12-13.59Q5.19-15.77 8.47-15.77L8.47-15.77Q10.61-15.77 12.34-14.75Q14.06-13.72 14.96-11.89Q15.87-10.05 15.87-7.73L15.87-7.73Q15.87-5.37 14.92-3.51Q13.96-1.65 12.22-0.69Q10.48 0.26 8.46 0.26L8.46 0.26Q6.27 0.26 4.55-0.79Q2.82-1.85 1.93-3.68Q1.05-5.51 1.05-7.55ZM3.16-7.52L3.16-7.52Q3.16-4.71 4.67-3.10Q6.17-1.49 8.45-1.49L8.45-1.49Q10.76-1.49 12.26-3.12Q13.75-4.75 13.75-7.74L13.75-7.74Q13.75-9.63 13.11-11.04Q12.47-12.45 11.24-13.23Q10.01-14.01 8.48-14.01L8.48-14.01Q6.30-14.01 4.73-12.51Q3.16-11.02 3.16-7.52Z" transform="translate(119.0855712890625 84.54916992187499) skewX(0)" fill="#0063dc" stroke="#0063dc" stroke-width="0.036" data-glyph-w="16.8400634765625" data-glyph-h="24.187109375" data-glyph-ascender="19.599169921875" data-glyph-descender="-4.587939453124999"></path><path d="M3.62 0L1.65 0L1.65-15.50L3.75-15.50L11.89-3.33L11.89-15.50L13.86-15.50L13.86 0L11.76 0L3.62-12.18L3.62 0Z" transform="translate(135.925634765625 84.54916992187499) skewX(0)" fill="#0063dc" stroke="#0063dc" stroke-width="0.036" data-glyph-w="15.6349365234375" data-glyph-h="24.187109375" data-glyph-ascender="19.599169921875" data-glyph-descender="-4.587939453124999"></path><path d="" transform="translate(151.5605712890625 84.54916992187499) skewX(0)" fill="#0063dc" stroke="#0063dc" stroke-width="0.036" data-glyph-w="8.6167" data-glyph-h="21.65" data-glyph-ascender="19.052" data-glyph-descender="-2.598"></path><path d="M0.97-4.98L0.97-4.98L2.91-5.15Q3.04-3.99 3.55-3.24Q4.05-2.49 5.11-2.03Q6.16-1.58 7.48-1.58L7.48-1.58Q8.66-1.58 9.56-1.92Q10.46-2.27 10.89-2.88Q11.33-3.49 11.33-4.21L11.33-4.21Q11.33-4.94 10.91-5.48Q10.49-6.03 9.51-6.40L9.51-6.40Q8.89-6.64 6.76-7.15Q4.62-7.66 3.76-8.12L3.76-8.12Q2.65-8.70 2.11-9.56Q1.56-10.42 1.56-11.49L1.56-11.49Q1.56-12.66 2.23-13.68Q2.90-14.70 4.18-15.23Q5.45-15.76 7.02-15.76L7.02-15.76Q8.74-15.76 10.06-15.21Q11.37-14.65 12.08-13.57Q12.79-12.50 12.84-11.13L12.84-11.13L10.88-10.98Q10.72-12.45 9.80-13.20Q8.89-13.95 7.10-13.95L7.10-13.95Q5.24-13.95 4.39-13.27Q3.54-12.59 3.54-11.63L3.54-11.63Q3.54-10.79 4.14-10.25L4.14-10.25Q4.74-9.72 7.24-9.15Q9.74-8.58 10.67-8.16L10.67-8.16Q12.02-7.54 12.66-6.58Q13.31-5.62 13.31-4.38L13.31-4.38Q13.31-3.14 12.60-2.05Q11.89-0.95 10.57-0.34Q9.24 0.26 7.58 0.26L7.58 0.26Q5.48 0.26 4.05-0.35Q2.63-0.96 1.82-2.19Q1.01-3.43 0.97-4.98Z" transform="translate(160.1772712890625 84.54916992187499) skewX(0)" fill="#0063dc" stroke="#0063dc" stroke-width="0.036" data-glyph-w="14.440380859374999" data-glyph-h="24.187109375" data-glyph-ascender="19.599169921875" data-glyph-descender="-4.587939453124999"></path><path d="M8.09 0L6.04 0L6.04-6.56L0.06-15.50L2.56-15.50L5.61-10.82Q6.46-9.51 7.19-8.20L7.19-8.20Q7.89-9.42 8.88-10.94L8.88-10.94L11.88-15.50L14.27-15.50L8.09-6.56L8.09 0Z" transform="translate(174.61765214843751 84.54916992187499) skewX(0)" fill="#0063dc" stroke="#0063dc" stroke-width="0.036" data-glyph-w="14.440380859374999" data-glyph-h="24.187109375" data-glyph-ascender="19.599169921875" data-glyph-descender="-4.587939453124999"></path><path d="M0.97-4.98L0.97-4.98L2.91-5.15Q3.04-3.99 3.55-3.24Q4.05-2.49 5.11-2.03Q6.16-1.58 7.48-1.58L7.48-1.58Q8.66-1.58 9.56-1.92Q10.46-2.27 10.89-2.88Q11.33-3.49 11.33-4.21L11.33-4.21Q11.33-4.94 10.91-5.48Q10.49-6.03 9.51-6.40L9.51-6.40Q8.89-6.64 6.76-7.15Q4.62-7.66 3.76-8.12L3.76-8.12Q2.65-8.70 2.11-9.56Q1.56-10.42 1.56-11.49L1.56-11.49Q1.56-12.66 2.23-13.68Q2.90-14.70 4.18-15.23Q5.45-15.76 7.02-15.76L7.02-15.76Q8.74-15.76 10.06-15.21Q11.37-14.65 12.08-13.57Q12.79-12.50 12.84-11.13L12.84-11.13L10.88-10.98Q10.72-12.45 9.80-13.20Q8.89-13.95 7.10-13.95L7.10-13.95Q5.24-13.95 4.39-13.27Q3.54-12.59 3.54-11.63L3.54-11.63Q3.54-10.79 4.14-10.25L4.14-10.25Q4.74-9.72 7.24-9.15Q9.74-8.58 10.67-8.16L10.67-8.16Q12.02-7.54 12.66-6.58Q13.31-5.62 13.31-4.38L13.31-4.38Q13.31-3.14 12.60-2.05Q11.89-0.95 10.57-0.34Q9.24 0.26 7.58 0.26L7.58 0.26Q5.48 0.26 4.05-0.35Q2.63-0.96 1.82-2.19Q1.01-3.43 0.97-4.98Z" transform="translate(189.05803300781253 84.54916992187499) skewX(0)" fill="#0063dc" stroke="#0063dc" stroke-width="0.036" data-glyph-w="14.440380859374999" data-glyph-h="24.187109375" data-glyph-ascender="19.599169921875" data-glyph-descender="-4.587939453124999"></path><path d="M7.66 0L5.61 0L5.61-13.67L0.51-13.67L0.51-15.50L12.79-15.50L12.79-13.67L7.66-13.67L7.66 0Z" transform="translate(203.49841386718754 84.54916992187499) skewX(0)" fill="#0063dc" stroke="#0063dc" stroke-width="0.036" data-glyph-w="13.224682617187499" data-glyph-h="24.187109375" data-glyph-ascender="19.599169921875" data-glyph-descender="-4.587939453124999"></path><path d="M13.28 0L1.71 0L1.71-15.50L12.92-15.50L12.92-13.67L3.76-13.67L3.76-8.92L12.34-8.92L12.34-7.10L3.76-7.10L3.76-1.83L13.28-1.83L13.28 0Z" transform="translate(216.72309648437505 84.54916992187499) skewX(0)" fill="#0063dc" stroke="#0063dc" stroke-width="0.036" data-glyph-w="14.440380859374999" data-glyph-h="24.187109375" data-glyph-ascender="19.599169921875" data-glyph-descender="-4.587939453124999"></path><path d="M3.58 0L1.61 0L1.61-15.50L4.69-15.50L8.36-4.52Q8.87-2.99 9.10-2.23L9.10-2.23Q9.37-3.08 9.93-4.71L9.93-4.71L13.64-15.50L16.40-15.50L16.40 0L14.42 0L14.42-12.97L9.92 0L8.07 0L3.58-13.19L3.58 0Z" transform="translate(231.16347734375006 84.54916992187499) skewX(0)" fill="#0063dc" stroke="#0063dc" stroke-width="0.036" data-glyph-w="18.034619140624997" data-glyph-h="24.187109375" data-glyph-ascender="19.599169921875" data-glyph-descender="-4.587939453124999"></path><path d="" transform="translate(249.19809648437507 84.54916992187499) skewX(0)" fill="#0063dc" stroke="#0063dc" stroke-width="0.036" data-glyph-w="8.6167" data-glyph-h="21.65" data-glyph-ascender="19.052" data-glyph-descender="-2.598"></path><path d="M1.05-7.55L1.05-7.55Q1.05-11.41 3.12-13.59Q5.19-15.77 8.47-15.77L8.47-15.77Q10.61-15.77 12.34-14.75Q14.06-13.72 14.96-11.89Q15.87-10.05 15.87-7.73L15.87-7.73Q15.87-5.37 14.92-3.51Q13.96-1.65 12.22-0.69Q10.48 0.26 8.46 0.26L8.46 0.26Q6.27 0.26 4.55-0.79Q2.82-1.85 1.93-3.68Q1.05-5.51 1.05-7.55ZM3.16-7.52L3.16-7.52Q3.16-4.71 4.67-3.10Q6.17-1.49 8.45-1.49L8.45-1.49Q10.76-1.49 12.26-3.12Q13.75-4.75 13.75-7.74L13.75-7.74Q13.75-9.63 13.11-11.04Q12.47-12.45 11.24-13.23Q10.01-14.01 8.48-14.01L8.48-14.01Q6.30-14.01 4.73-12.51Q3.16-11.02 3.16-7.52Z" transform="translate(257.81479648437505 84.54916992187499) skewX(0)" fill="#0063dc" stroke="#0063dc" stroke-width="0.036" data-glyph-w="16.8400634765625" data-glyph-h="24.187109375" data-glyph-ascender="19.599169921875" data-glyph-descender="-4.587939453124999"></path><path d="M3.83 0L1.78 0L1.78-15.50L12.23-15.50L12.23-13.67L3.83-13.67L3.83-8.87L11.10-8.87L11.10-7.04L3.83-7.04L3.83 0Z" transform="translate(274.65485996093753 84.54916992187499) skewX(0)" fill="#0063dc" stroke="#0063dc" stroke-width="0.036" data-glyph-w="13.224682617187499" data-glyph-h="24.187109375" data-glyph-ascender="19.599169921875" data-glyph-descender="-4.587939453124999"></path><path d="" transform="translate(287.87954257812504 84.54916992187499) skewX(0)" fill="#0063dc" stroke="#0063dc" stroke-width="0.036" data-glyph-w="8.6167" data-glyph-h="21.65" data-glyph-ascender="19.052" data-glyph-descender="-2.598"></path><path d="M0.97-4.98L0.97-4.98L2.91-5.15Q3.04-3.99 3.55-3.24Q4.05-2.49 5.11-2.03Q6.16-1.58 7.48-1.58L7.48-1.58Q8.66-1.58 9.56-1.92Q10.46-2.27 10.89-2.88Q11.33-3.49 11.33-4.21L11.33-4.21Q11.33-4.94 10.91-5.48Q10.49-6.03 9.51-6.40L9.51-6.40Q8.89-6.64 6.76-7.15Q4.62-7.66 3.76-8.12L3.76-8.12Q2.65-8.70 2.11-9.56Q1.56-10.42 1.56-11.49L1.56-11.49Q1.56-12.66 2.23-13.68Q2.90-14.70 4.18-15.23Q5.45-15.76 7.02-15.76L7.02-15.76Q8.74-15.76 10.06-15.21Q11.37-14.65 12.08-13.57Q12.79-12.50 12.84-11.13L12.84-11.13L10.88-10.98Q10.72-12.45 9.80-13.20Q8.89-13.95 7.10-13.95L7.10-13.95Q5.24-13.95 4.39-13.27Q3.54-12.59 3.54-11.63L3.54-11.63Q3.54-10.79 4.14-10.25L4.14-10.25Q4.74-9.72 7.24-9.15Q9.74-8.58 10.67-8.16L10.67-8.16Q12.02-7.54 12.66-6.58Q13.31-5.62 13.31-4.38L13.31-4.38Q13.31-3.14 12.60-2.05Q11.89-0.95 10.57-0.34Q9.24 0.26 7.58 0.26L7.58 0.26Q5.48 0.26 4.05-0.35Q2.63-0.96 1.82-2.19Q1.01-3.43 0.97-4.98Z" transform="translate(296.496242578125 84.54916992187499) skewX(0)" fill="#0063dc" stroke="#0063dc" stroke-width="0.036" data-glyph-w="14.440380859374999" data-glyph-h="24.187109375" data-glyph-ascender="19.599169921875" data-glyph-descender="-4.587939453124999"></path><path d="M13.28 0L1.71 0L1.71-15.50L12.92-15.50L12.92-13.67L3.76-13.67L3.76-8.92L12.34-8.92L12.34-7.10L3.76-7.10L3.76-1.83L13.28-1.83L13.28 0Z" transform="translate(310.93662343750003 84.54916992187499) skewX(0)" fill="#0063dc" stroke="#0063dc" stroke-width="0.036" data-glyph-w="14.440380859374999" data-glyph-h="24.187109375" data-glyph-ascender="19.599169921875" data-glyph-descender="-4.587939453124999"></path><path d="M12.73-5.43L12.73-5.43L14.78-4.92Q14.13-2.39 12.46-1.06Q10.78 0.26 8.36 0.26L8.36 0.26Q5.86 0.26 4.29-0.76Q2.72-1.78 1.90-3.71Q1.08-5.65 1.08-7.87L1.08-7.87Q1.08-10.29 2.00-12.09Q2.93-13.89 4.64-14.83Q6.34-15.76 8.39-15.76L8.39-15.76Q10.72-15.76 12.30-14.58Q13.89-13.39 14.51-11.25L14.51-11.25L12.50-10.77Q11.96-12.46 10.93-13.24Q9.91-14.01 8.35-14.01L8.35-14.01Q6.56-14.01 5.36-13.15Q4.17-12.29 3.68-10.85Q3.19-9.41 3.19-7.88L3.19-7.88Q3.19-5.90 3.77-4.42Q4.34-2.95 5.56-2.22Q6.78-1.49 8.19-1.49L8.19-1.49Q9.92-1.49 11.11-2.48Q12.30-3.48 12.73-5.43Z" transform="translate(325.37700429687504 84.54916992187499) skewX(0)" fill="#0063dc" stroke="#0063dc" stroke-width="0.036" data-glyph-w="15.6349365234375" data-glyph-h="24.187109375" data-glyph-ascender="19.599169921875" data-glyph-descender="-4.587939453124999"></path><path d="M1.05-7.55L1.05-7.55Q1.05-11.41 3.12-13.59Q5.19-15.77 8.47-15.77L8.47-15.77Q10.61-15.77 12.34-14.75Q14.06-13.72 14.96-11.89Q15.87-10.05 15.87-7.73L15.87-7.73Q15.87-5.37 14.92-3.51Q13.96-1.65 12.22-0.69Q10.48 0.26 8.46 0.26L8.46 0.26Q6.27 0.26 4.55-0.79Q2.82-1.85 1.93-3.68Q1.05-5.51 1.05-7.55ZM3.16-7.52L3.16-7.52Q3.16-4.71 4.67-3.10Q6.17-1.49 8.45-1.49L8.45-1.49Q10.76-1.49 12.26-3.12Q13.75-4.75 13.75-7.74L13.75-7.74Q13.75-9.63 13.11-11.04Q12.47-12.45 11.24-13.23Q10.01-14.01 8.48-14.01L8.48-14.01Q6.30-14.01 4.73-12.51Q3.16-11.02 3.16-7.52Z" transform="translate(341.01194082031253 84.54916992187499) skewX(0)" fill="#0063dc" stroke="#0063dc" stroke-width="0.036" data-glyph-w="16.8400634765625" data-glyph-h="24.187109375" data-glyph-ascender="19.599169921875" data-glyph-descender="-4.587939453124999"></path><path d="M3.62 0L1.65 0L1.65-15.50L3.75-15.50L11.89-3.33L11.89-15.50L13.86-15.50L13.86 0L11.76 0L3.62-12.18L3.62 0Z" transform="translate(357.852004296875 84.54916992187499) skewX(0)" fill="#0063dc" stroke="#0063dc" stroke-width="0.036" data-glyph-w="15.6349365234375" data-glyph-h="24.187109375" data-glyph-ascender="19.599169921875" data-glyph-descender="-4.587939453124999"></path><path d="M7.26 0L1.67 0L1.67-15.50L7.01-15.50Q8.82-15.50 9.77-15.28L9.77-15.28Q11.10-14.97 12.04-14.17L12.04-14.17Q13.27-13.13 13.87-11.52Q14.48-9.91 14.48-7.83L14.48-7.83Q14.48-6.07 14.07-4.70Q13.66-3.34 13.01-2.45Q12.37-1.55 11.60-1.04Q10.84-0.53 9.75-0.26Q8.67 0 7.26 0L7.26 0ZM3.72-13.67L3.72-1.83L7.03-1.83Q8.56-1.83 9.43-2.11Q10.31-2.40 10.82-2.92L10.82-2.92Q11.55-3.65 11.96-4.88Q12.37-6.11 12.37-7.87L12.37-7.87Q12.37-10.30 11.57-11.60Q10.77-12.91 9.63-13.35L9.63-13.35Q8.81-13.67 6.98-13.67L6.98-13.67L3.72-13.67Z" transform="translate(373.4869408203125 84.54916992187499) skewX(0)" fill="#0063dc" stroke="#0063dc" stroke-width="0.036" data-glyph-w="15.6349365234375" data-glyph-h="24.187109375" data-glyph-ascender="19.599169921875" data-glyph-descender="-4.587939453124999"></path><path d="M2.15 0L-0.03 0L5.92-15.50L8.13-15.50L14.47 0L12.14 0L10.33-4.69L3.85-4.69L2.15 0ZM6.14-10.91L4.44-6.36L9.69-6.36L8.08-10.66Q7.34-12.61 6.98-13.87L6.98-13.87Q6.68-12.38 6.14-10.91L6.14-10.91Z" transform="translate(389.12187734375 84.54916992187499) skewX(0)" fill="#0063dc" stroke="#0063dc" stroke-width="0.036" data-glyph-w="14.440380859374999" data-glyph-h="24.187109375" data-glyph-ascender="19.599169921875" data-glyph-descender="-4.587939453124999"></path><path d="M3.75 0L1.70 0L1.70-15.50L8.57-15.50Q10.65-15.50 11.72-15.08Q12.80-14.66 13.45-13.61Q14.09-12.55 14.09-11.27L14.09-11.27Q14.09-9.62 13.02-8.49Q11.96-7.36 9.73-7.05L9.73-7.05Q10.54-6.66 10.96-6.28L10.96-6.28Q11.86-5.45 12.66-4.22L12.66-4.22L15.36 0L12.78 0L10.73-3.22Q9.83-4.62 9.25-5.36Q8.67-6.10 8.21-6.40Q7.75-6.69 7.27-6.81L7.27-6.81Q6.92-6.88 6.13-6.88L6.13-6.88L3.75-6.88L3.75 0ZM3.75-13.78L3.75-8.66L8.16-8.66Q9.57-8.66 10.36-8.95Q11.15-9.24 11.56-9.88Q11.98-10.52 11.98-11.27L11.98-11.27Q11.98-12.37 11.18-13.08Q10.38-13.78 8.66-13.78L8.66-13.78L3.75-13.78Z" transform="translate(403.562258203125 84.54916992187499) skewX(0)" fill="#0063dc" stroke="#0063dc" stroke-width="0.036" data-glyph-w="15.6349365234375" data-glyph-h="24.187109375" data-glyph-ascender="19.599169921875" data-glyph-descender="-4.587939453124999"></path><path d="M8.09 0L6.04 0L6.04-6.56L0.06-15.50L2.56-15.50L5.61-10.82Q6.46-9.51 7.19-8.20L7.19-8.20Q7.89-9.42 8.88-10.94L8.88-10.94L11.88-15.50L14.27-15.50L8.09-6.56L8.09 0Z" transform="translate(419.1971947265625 84.54916992187499) skewX(0)" fill="#0063dc" stroke="#0063dc" stroke-width="0.036" data-glyph-w="14.440380859374999" data-glyph-h="24.187109375" data-glyph-ascender="19.599169921875" data-glyph-descender="-4.587939453124999"></path><path d="" transform="translate(433.6375755859375 84.54916992187499) skewX(0)" fill="#0063dc" stroke="#0063dc" stroke-width="0.036" data-glyph-w="8.6167" data-glyph-h="21.65" data-glyph-ascender="19.052" data-glyph-descender="-2.598"></path><path d="M8.20 0L6.10 0L0.10-15.50L2.32-15.50L6.34-4.24Q6.83-2.89 7.16-1.70L7.16-1.70Q7.52-2.97 7.99-4.24L7.99-4.24L12.18-15.50L14.27-15.50L8.20 0Z" transform="translate(442.2542755859375 84.54916992187499) skewX(0)" fill="#0063dc" stroke="#0063dc" stroke-width="0.036" data-glyph-w="14.440380859374999" data-glyph-h="24.187109375" data-glyph-ascender="19.599169921875" data-glyph-descender="-4.587939453124999"></path><path d="M1.05-7.55L1.05-7.55Q1.05-11.41 3.12-13.59Q5.19-15.77 8.47-15.77L8.47-15.77Q10.61-15.77 12.34-14.75Q14.06-13.72 14.96-11.89Q15.87-10.05 15.87-7.73L15.87-7.73Q15.87-5.37 14.92-3.51Q13.96-1.65 12.22-0.69Q10.48 0.26 8.46 0.26L8.46 0.26Q6.27 0.26 4.55-0.79Q2.82-1.85 1.93-3.68Q1.05-5.51 1.05-7.55ZM3.16-7.52L3.16-7.52Q3.16-4.71 4.67-3.10Q6.17-1.49 8.45-1.49L8.45-1.49Q10.76-1.49 12.26-3.12Q13.75-4.75 13.75-7.74L13.75-7.74Q13.75-9.63 13.11-11.04Q12.47-12.45 11.24-13.23Q10.01-14.01 8.48-14.01L8.48-14.01Q6.30-14.01 4.73-12.51Q3.16-11.02 3.16-7.52Z" transform="translate(456.6946564453125 84.54916992187499) skewX(0)" fill="#0063dc" stroke="#0063dc" stroke-width="0.036" data-glyph-w="16.8400634765625" data-glyph-h="24.187109375" data-glyph-ascender="19.599169921875" data-glyph-descender="-4.587939453124999"></path><path d="M11.27 0L1.59 0L1.59-15.50L3.64-15.50L3.64-1.83L11.27-1.83L11.27 0Z" transform="translate(473.53471992187497 84.54916992187499) skewX(0)" fill="#0063dc" stroke="#0063dc" stroke-width="0.036" data-glyph-w="12.0406982421875" data-glyph-h="24.187109375" data-glyph-ascender="19.599169921875" data-glyph-descender="-4.587939453124999"></path><path d="M7.66 0L5.61 0L5.61-13.67L0.51-13.67L0.51-15.50L12.79-15.50L12.79-13.67L7.66-13.67L7.66 0Z" transform="translate(485.57541816406246 84.54916992187499) skewX(0)" fill="#0063dc" stroke="#0063dc" stroke-width="0.036" data-glyph-w="13.224682617187499" data-glyph-h="24.187109375" data-glyph-ascender="19.599169921875" data-glyph-descender="-4.587939453124999"></path><path d="M2.15 0L-0.03 0L5.92-15.50L8.13-15.50L14.47 0L12.14 0L10.33-4.69L3.85-4.69L2.15 0ZM6.14-10.91L4.44-6.36L9.69-6.36L8.08-10.66Q7.34-12.61 6.98-13.87L6.98-13.87Q6.68-12.38 6.14-10.91L6.14-10.91Z" transform="translate(498.80010078124997 84.54916992187499) skewX(0)" fill="#0063dc" stroke="#0063dc" stroke-width="0.036" data-glyph-w="14.440380859374999" data-glyph-h="24.187109375" data-glyph-ascender="19.599169921875" data-glyph-descender="-4.587939453124999"></path><path d="M13.48-6.08L8.92-6.08L8.92-7.90L15.49-7.91L15.49-2.16Q13.98-0.95 12.37-0.34Q10.76 0.26 9.07 0.26L9.07 0.26Q6.79 0.26 4.92-0.71Q3.06-1.69 2.10-3.54Q1.15-5.39 1.15-7.67L1.15-7.67Q1.15-9.94 2.10-11.90Q3.04-13.86 4.82-14.81Q6.60-15.76 8.91-15.76L8.91-15.76Q10.59-15.76 11.95-15.22Q13.31-14.67 14.08-13.70Q14.85-12.73 15.25-11.16L15.25-11.16L13.40-10.66Q13.06-11.84 12.54-12.52Q12.02-13.19 11.06-13.60Q10.10-14.01 8.92-14.01L8.92-14.01Q7.52-14.01 6.49-13.58Q5.47-13.15 4.84-12.45Q4.21-11.76 3.86-10.92L3.86-10.92Q3.27-9.48 3.27-7.80L3.27-7.80Q3.27-5.73 3.98-4.33Q4.69-2.94 6.06-2.26Q7.42-1.59 8.95-1.59L8.95-1.59Q10.29-1.59 11.55-2.10Q12.82-2.61 13.48-3.19L13.48-3.19L13.48-6.08Z" transform="translate(513.2404816406249 84.54916992187499) skewX(0)" fill="#0063dc" stroke="#0063dc" stroke-width="0.036" data-glyph-w="16.8400634765625" data-glyph-h="24.187109375" data-glyph-ascender="19.599169921875" data-glyph-descender="-4.587939453124999"></path><path d="M13.28 0L1.71 0L1.71-15.50L12.92-15.50L12.92-13.67L3.76-13.67L3.76-8.92L12.34-8.92L12.34-7.10L3.76-7.10L3.76-1.83L13.28-1.83L13.28 0Z" transform="translate(530.0805451171874 84.54916992187499) skewX(0)" fill="#0063dc" stroke="#0063dc" stroke-width="0.036" data-glyph-w="14.440380859374999" data-glyph-h="24.187109375" data-glyph-ascender="19.599169921875" data-glyph-descender="-4.587939453124999"></path><path d="" transform="translate(544.5209259765624 84.54916992187499) skewX(0)" fill="#0063dc" stroke="#0063dc" stroke-width="0.036" data-glyph-w="8.6167" data-glyph-h="21.65" data-glyph-ascender="19.052" data-glyph-descender="-2.598"></path><path d="M7.26 0L1.67 0L1.67-15.50L7.01-15.50Q8.82-15.50 9.77-15.28L9.77-15.28Q11.10-14.97 12.04-14.17L12.04-14.17Q13.27-13.13 13.87-11.52Q14.48-9.91 14.48-7.83L14.48-7.83Q14.48-6.07 14.07-4.70Q13.66-3.34 13.01-2.45Q12.37-1.55 11.60-1.04Q10.84-0.53 9.75-0.26Q8.67 0 7.26 0L7.26 0ZM3.72-13.67L3.72-1.83L7.03-1.83Q8.56-1.83 9.43-2.11Q10.31-2.40 10.82-2.92L10.82-2.92Q11.55-3.65 11.96-4.88Q12.37-6.11 12.37-7.87L12.37-7.87Q12.37-10.30 11.57-11.60Q10.77-12.91 9.63-13.35L9.63-13.35Q8.81-13.67 6.98-13.67L6.98-13.67L3.72-13.67Z" transform="translate(553.1376259765624 84.54916992187499) skewX(0)" fill="#0063dc" stroke="#0063dc" stroke-width="0.036" data-glyph-w="15.6349365234375" data-glyph-h="24.187109375" data-glyph-ascender="19.599169921875" data-glyph-descender="-4.587939453124999"></path><path d="M3.75 0L1.70 0L1.70-15.50L8.57-15.50Q10.65-15.50 11.72-15.08Q12.80-14.66 13.45-13.61Q14.09-12.55 14.09-11.27L14.09-11.27Q14.09-9.62 13.02-8.49Q11.96-7.36 9.73-7.05L9.73-7.05Q10.54-6.66 10.96-6.28L10.96-6.28Q11.86-5.45 12.66-4.22L12.66-4.22L15.36 0L12.78 0L10.73-3.22Q9.83-4.62 9.25-5.36Q8.67-6.10 8.21-6.40Q7.75-6.69 7.27-6.81L7.27-6.81Q6.92-6.88 6.13-6.88L6.13-6.88L3.75-6.88L3.75 0ZM3.75-13.78L3.75-8.66L8.16-8.66Q9.57-8.66 10.36-8.95Q11.15-9.24 11.56-9.88Q11.98-10.52 11.98-11.27L11.98-11.27Q11.98-12.37 11.18-13.08Q10.38-13.78 8.66-13.78L8.66-13.78L3.75-13.78Z" transform="translate(568.7725624999999 84.54916992187499) skewX(0)" fill="#0063dc" stroke="#0063dc" stroke-width="0.036" data-glyph-w="15.6349365234375" data-glyph-h="24.187109375" data-glyph-ascender="19.599169921875" data-glyph-descender="-4.587939453124999"></path><path d="M1.05-7.55L1.05-7.55Q1.05-11.41 3.12-13.59Q5.19-15.77 8.47-15.77L8.47-15.77Q10.61-15.77 12.34-14.75Q14.06-13.72 14.96-11.89Q15.87-10.05 15.87-7.73L15.87-7.73Q15.87-5.37 14.92-3.51Q13.96-1.65 12.22-0.69Q10.48 0.26 8.46 0.26L8.46 0.26Q6.27 0.26 4.55-0.79Q2.82-1.85 1.93-3.68Q1.05-5.51 1.05-7.55ZM3.16-7.52L3.16-7.52Q3.16-4.71 4.67-3.10Q6.17-1.49 8.45-1.49L8.45-1.49Q10.76-1.49 12.26-3.12Q13.75-4.75 13.75-7.74L13.75-7.74Q13.75-9.63 13.11-11.04Q12.47-12.45 11.24-13.23Q10.01-14.01 8.48-14.01L8.48-14.01Q6.30-14.01 4.73-12.51Q3.16-11.02 3.16-7.52Z" transform="translate(584.4074990234375 84.54916992187499) skewX(0)" fill="#0063dc" stroke="#0063dc" stroke-width="0.036" data-glyph-w="16.8400634765625" data-glyph-h="24.187109375" data-glyph-ascender="19.599169921875" data-glyph-descender="-4.587939453124999"></path><path d="M3.72 0L1.67 0L1.67-15.50L7.52-15.50Q9.06-15.50 9.87-15.35L9.87-15.35Q11.02-15.16 11.79-14.63Q12.56-14.09 13.03-13.13Q13.50-12.17 13.50-11.02L13.50-11.02Q13.50-9.04 12.24-7.67Q10.98-6.30 7.70-6.30L7.70-6.30L3.72-6.30L3.72 0ZM3.72-13.67L3.72-8.13L7.73-8.13Q9.72-8.13 10.55-8.87Q11.39-9.61 11.39-10.95L11.39-10.95Q11.39-11.92 10.89-12.62Q10.40-13.31 9.60-13.53L9.60-13.53Q9.08-13.67 7.69-13.67L7.69-13.67L3.72-13.67Z" transform="translate(601.2475625 84.54916992187499) skewX(0)" fill="#0063dc" stroke="#0063dc" stroke-width="0.036" data-glyph-w="14.440380859374999" data-glyph-h="24.187109375" data-glyph-ascender="19.599169921875" data-glyph-descender="-4.587939453124999"></path><path d="" transform="translate(615.6879433593749 84.54916992187499) skewX(0)" fill="#0063dc" stroke="#0063dc" stroke-width="0.036" data-glyph-w="8.6167" data-glyph-h="21.65" data-glyph-ascender="19.052" data-glyph-descender="-2.598"></path><path d="M7.26 0L1.67 0L1.67-15.50L7.01-15.50Q8.82-15.50 9.77-15.28L9.77-15.28Q11.10-14.97 12.04-14.17L12.04-14.17Q13.27-13.13 13.87-11.52Q14.48-9.91 14.48-7.83L14.48-7.83Q14.48-6.07 14.07-4.70Q13.66-3.34 13.01-2.45Q12.37-1.55 11.60-1.04Q10.84-0.53 9.75-0.26Q8.67 0 7.26 0L7.26 0ZM3.72-13.67L3.72-1.83L7.03-1.83Q8.56-1.83 9.43-2.11Q10.31-2.40 10.82-2.92L10.82-2.92Q11.55-3.65 11.96-4.88Q12.37-6.11 12.37-7.87L12.37-7.87Q12.37-10.30 11.57-11.60Q10.77-12.91 9.63-13.35L9.63-13.35Q8.81-13.67 6.98-13.67L6.98-13.67L3.72-13.67Z" transform="translate(624.304643359375 84.54916992187499) skewX(0)" fill="#0063dc" stroke="#0063dc" stroke-width="0.036" data-glyph-w="15.6349365234375" data-glyph-h="24.187109375" data-glyph-ascender="19.599169921875" data-glyph-descender="-4.587939453124999"></path><path d="M13.28 0L1.71 0L1.71-15.50L12.92-15.50L12.92-13.67L3.76-13.67L3.76-8.92L12.34-8.92L12.34-7.10L3.76-7.10L3.76-1.83L13.28-1.83L13.28 0Z" transform="translate(639.9395798828125 84.54916992187499) skewX(0)" fill="#0063dc" stroke="#0063dc" stroke-width="0.036" data-glyph-w="14.440380859374999" data-glyph-h="24.187109375" data-glyph-ascender="19.599169921875" data-glyph-descender="-4.587939453124999"></path><path d="M7.66 0L5.61 0L5.61-13.67L0.51-13.67L0.51-15.50L12.79-15.50L12.79-13.67L7.66-13.67L7.66 0Z" transform="translate(654.3799607421874 84.54916992187499) skewX(0)" fill="#0063dc" stroke="#0063dc" stroke-width="0.036" data-glyph-w="13.224682617187499" data-glyph-h="24.187109375" data-glyph-ascender="19.599169921875" data-glyph-descender="-4.587939453124999"></path><path d="M13.28 0L1.71 0L1.71-15.50L12.92-15.50L12.92-13.67L3.76-13.67L3.76-8.92L12.34-8.92L12.34-7.10L3.76-7.10L3.76-1.83L13.28-1.83L13.28 0Z" transform="translate(667.6046433593749 84.54916992187499) skewX(0)" fill="#0063dc" stroke="#0063dc" stroke-width="0.036" data-glyph-w="14.440380859374999" data-glyph-h="24.187109375" data-glyph-ascender="19.599169921875" data-glyph-descender="-4.587939453124999"></path><path d="M12.73-5.43L12.73-5.43L14.78-4.92Q14.13-2.39 12.46-1.06Q10.78 0.26 8.36 0.26L8.36 0.26Q5.86 0.26 4.29-0.76Q2.72-1.78 1.90-3.71Q1.08-5.65 1.08-7.87L1.08-7.87Q1.08-10.29 2.00-12.09Q2.93-13.89 4.64-14.83Q6.34-15.76 8.39-15.76L8.39-15.76Q10.72-15.76 12.30-14.58Q13.89-13.39 14.51-11.25L14.51-11.25L12.50-10.77Q11.96-12.46 10.93-13.24Q9.91-14.01 8.35-14.01L8.35-14.01Q6.56-14.01 5.36-13.15Q4.17-12.29 3.68-10.85Q3.19-9.41 3.19-7.88L3.19-7.88Q3.19-5.90 3.77-4.42Q4.34-2.95 5.56-2.22Q6.78-1.49 8.19-1.49L8.19-1.49Q9.92-1.49 11.11-2.48Q12.30-3.48 12.73-5.43Z" transform="translate(682.0450242187499 84.54916992187499) skewX(0)" fill="#0063dc" stroke="#0063dc" stroke-width="0.036" data-glyph-w="15.6349365234375" data-glyph-h="24.187109375" data-glyph-ascender="19.599169921875" data-glyph-descender="-4.587939453124999"></path><path d="M7.66 0L5.61 0L5.61-13.67L0.51-13.67L0.51-15.50L12.79-15.50L12.79-13.67L7.66-13.67L7.66 0Z" transform="translate(697.6799607421874 84.54916992187499) skewX(0)" fill="#0063dc" stroke="#0063dc" stroke-width="0.036" data-glyph-w="13.224682617187499" data-glyph-h="24.187109375" data-glyph-ascender="19.599169921875" data-glyph-descender="-4.587939453124999"></path><path d="M1.05-7.55L1.05-7.55Q1.05-11.41 3.12-13.59Q5.19-15.77 8.47-15.77L8.47-15.77Q10.61-15.77 12.34-14.75Q14.06-13.72 14.96-11.89Q15.87-10.05 15.87-7.73L15.87-7.73Q15.87-5.37 14.92-3.51Q13.96-1.65 12.22-0.69Q10.48 0.26 8.46 0.26L8.46 0.26Q6.27 0.26 4.55-0.79Q2.82-1.85 1.93-3.68Q1.05-5.51 1.05-7.55ZM3.16-7.52L3.16-7.52Q3.16-4.71 4.67-3.10Q6.17-1.49 8.45-1.49L8.45-1.49Q10.76-1.49 12.26-3.12Q13.75-4.75 13.75-7.74L13.75-7.74Q13.75-9.63 13.11-11.04Q12.47-12.45 11.24-13.23Q10.01-14.01 8.48-14.01L8.48-14.01Q6.30-14.01 4.73-12.51Q3.16-11.02 3.16-7.52Z" transform="translate(710.9046433593749 84.54916992187499) skewX(0)" fill="#0063dc" stroke="#0063dc" stroke-width="0.036" data-glyph-w="16.8400634765625" data-glyph-h="24.187109375" data-glyph-ascender="19.599169921875" data-glyph-descender="-4.587939453124999"></path><path d="M3.75 0L1.70 0L1.70-15.50L8.57-15.50Q10.65-15.50 11.72-15.08Q12.80-14.66 13.45-13.61Q14.09-12.55 14.09-11.27L14.09-11.27Q14.09-9.62 13.02-8.49Q11.96-7.36 9.73-7.05L9.73-7.05Q10.54-6.66 10.96-6.28L10.96-6.28Q11.86-5.45 12.66-4.22L12.66-4.22L15.36 0L12.78 0L10.73-3.22Q9.83-4.62 9.25-5.36Q8.67-6.10 8.21-6.40Q7.75-6.69 7.27-6.81L7.27-6.81Q6.92-6.88 6.13-6.88L6.13-6.88L3.75-6.88L3.75 0ZM3.75-13.78L3.75-8.66L8.16-8.66Q9.57-8.66 10.36-8.95Q11.15-9.24 11.56-9.88Q11.98-10.52 11.98-11.27L11.98-11.27Q11.98-12.37 11.18-13.08Q10.38-13.78 8.66-13.78L8.66-13.78L3.75-13.78Z" transform="translate(727.7447068359373 84.54916992187499) skewX(0)" fill="#0063dc" stroke="#0063dc" stroke-width="0.036" data-glyph-w="15.6349365234375" data-glyph-h="24.187109375" data-glyph-ascender="19.599169921875" data-glyph-descender="-4.587939453124999"></path></g></svg></g>
        </g><g id="shape_awPVCCiLnv" class="brand_name"  ref="shape_awPVCCiLnv" key="shape_awPVCCiLnv" transform="translate(242.04726681958,-1.4175770317199863) rotate(0,224.96968508464,276.46) scale(1,1)" style="cursor:move;display:inline;opacity:1;" filter="">
            <g style="display:inline"><svg xmlns="http://www.w3.org/2000/svg" version="1.1" xmlns:xlink="http://www.w3.org/1999/xlink" width="1069.96" height="552.92" viewBox="0 0 1069.96 552.92" preserveAspectRatio="none" data-parent="shape_awPVCCiLnv"><rect fill="rgba(0,0,0,0)" width="767" height="75" x="75.74" y="238.95999999999998"></rect><g data-width="766.4887999999999" transform="translate(75.74, 0)"><path d="M11.21-49.46L67.03-49.46L65.97-41.88L10.15-41.88L11.21-49.46ZM3.79-9.39L64.15-9.39L63.02-1.21L2.65-1.21L3.79-9.39Z" transform="translate(0 302.96) skewX(0)" fill="#0063dc" stroke="#0063dc" stroke-width="0.126" data-glyph-w="69.6808" data-glyph-h="98.462" data-glyph-ascender="75.74" data-glyph-descender="-22.722"></path><path d="M54.38-36.66L46.81-22.80L52.79-22.80L63.55 0.53L50.90 0.53L43.17-16.06L34.23 0.45L20.75 0.45L41.20-36.66L54.38-36.66ZM46.13-53.78L43.55-48.47L69.38-48.47L68.24-40.37L65.29-32.57L55.29-32.57L58.47-41.13L39.91-41.13L35.60-32.27L23.10-32.27L32.49-51.65L30.75-53.78L46.13-53.78ZM13.18 0.68L0.23 0.68L8.33-26.51L21.28-26.51L13.18 0.68ZM21.74-29.39L8.79-29.39L7.50-50.97L20.45-50.97L21.74-29.39Z" transform="translate(69.6808 302.96) skewX(0)" fill="#0063dc" stroke="#0063dc" stroke-width="0.126" data-glyph-w="69.6808" data-glyph-h="98.462" data-glyph-ascender="75.74" data-glyph-descender="-22.722"></path><path d="M8.33-52.41L68.77-52.41L67.79-45.22L22.80-45.22L13.86 0.68L0.91 0.68L10.68-49.69L8.33-52.41ZM24.16-31.51L36.28-31.51L37.42-39.46L34.99-42.34L50.82-42.34L49.31-31.51L63.02-31.51L61.96-24.31L48.25-24.31L46.05-8.48L64.08-8.48L62.94-0.61L16.89-0.61L18.03-8.48L33.10-8.48L35.29-24.31L23.10-24.31L24.16-31.51ZM50.75-21.43L60.14-21.43L62.26-11.36L52.94-11.36L50.75-21.43Z" transform="translate(139.3616 302.96) skewX(0)" fill="#0063dc" stroke="#0063dc" stroke-width="0.126" data-glyph-w="69.6808" data-glyph-h="98.462" data-glyph-ascender="75.74" data-glyph-descender="-22.722"></path><path d="M21.96-45.60L17.57-45.60L11.13 0.61L1.14 0.61L8.56-52.41L32.19-52.41L31.28-45.97L27.34-32.19L30.22-32.19L29.24-25.68L25.07-6.29L14.31-6.29L15.22-12.72L17.87-12.72L20.60-25.68L17.12-25.68L18.10-32.19L21.96-45.60ZM66.88-28.63L56.20-28.63L49.38-32.11L42.72-28.55L30.60-28.55L31.51-35.14L38.93-35.14L41.35-36.36L38.48-37.87L30.30-37.87L38.55-51.73L36.81-53.70L49.76-53.70L48.02-50.82L68.54-50.82L67.26-41.73L58.32-36.89L62.11-35.14L67.79-35.14L66.88-28.63ZM38.70-17.34L37.04-12.95L42.34-12.95L43.10-18.63L29.77-18.63L30.67-25.15L44.00-25.15L44.46-28.10L56.80-28.10L56.35-25.15L66.35-25.15L65.44-18.63L55.44-18.63L54.68-12.95L64.68-12.95L63.77-6.44L53.78-6.44L52.79 0.61L40.45 0.61L41.43-6.44L27.49-6.44L28.33-12.27L30.45-17.34L38.70-17.34ZM57.49-44.46L44.23-44.46L43.85-43.78L50.22-40.75L57.49-44.46Z" transform="translate(209.04240000000001 302.96) skewX(0)" fill="#0063dc" stroke="#0063dc" stroke-width="0.126" data-glyph-w="69.6808" data-glyph-h="98.462" data-glyph-ascender="75.74" data-glyph-descender="-22.722"></path><path d="M68.09-30.60L57.49-30.60L56.88-33.33L56.50-29.46L41.35-29.46L41.88-33.02L40.60-30.52L30.22-30.52L40.98-51.05L38.55-53.85L62.26-53.85L68.09-30.60ZM8.18 0.68L13.56-37.42L7.04-37.42L8.10-44.61L14.54-44.61L15.53-51.50L13.78-53.70L26.05-53.70L24.77-44.61L31.13-44.61L30.07-37.42L23.78-37.42L18.40 0.68L8.18 0.68ZM57.87-27.34L66.58-27.34L59.83-7.57L65.14-7.57L64.15-0.53L26.28-0.53L27.27-7.57L51.20-7.57L57.87-27.34ZM31.43-27.34L40.14-27.34L39.99-9.32L31.28-9.32L31.43-27.34ZM6.36-2.04L1.59-2.04L7.50-34.92L12.27-34.92L6.36-2.04ZM42.79-27.34L51.50-27.34L50.59-9.39L41.96-9.39L42.79-27.34ZM26.51-6.36L21.66-6.36L24.46-34.92L29.24-34.92L26.51-6.36ZM49.00-47.34L43.47-36.36L56.27-36.36L54.08-47.34L49.00-47.34Z" transform="translate(278.7232 302.96) skewX(0)" fill="#0063dc" stroke="#0063dc" stroke-width="0.126" data-glyph-w="69.6808" data-glyph-h="98.462" data-glyph-ascender="75.74" data-glyph-descender="-22.722"></path><path d="M38.63-15.07L36.58-18.93L40.22-45.97L29.61-45.97L25.75-20.00L22.34-14.85L16.66-14.85L22.04-52.34L49.16-52.34L44.00-15.07L38.63-15.07ZM58.09-52.79L70.21-52.79L63.47-4.62Q63.17-2.50 61.50-1.02Q59.83 0.45 57.71 0.45L57.71 0.45L47.19 0.45L53.78-6.67L59.99-50.67L58.09-52.79ZM30.75-42.26L38.02-42.26L34.76-19.24L43.70 0.45L33.17 0.45L29.99-9.16L24.92 0.45L14.09 0.45L27.27-19.69L30.75-42.26ZM50.75-49.46L57.87-49.46L52.64-12.35L45.52-12.35L50.75-49.46ZM9.69 0.45L-0.45 0.45L5.83-20.75L15.91-20.75L9.69 0.45ZM16.51-23.63L6.59-23.63L6.21-36.58L16.13-36.58L16.51-23.63ZM18.78-39.46L8.86-39.46L8.48-52.41L18.40-52.41L18.78-39.46Z" transform="translate(348.404 302.96) skewX(0)" fill="#0063dc" stroke="#0063dc" stroke-width="0.126" data-glyph-w="69.6808" data-glyph-h="98.462" data-glyph-ascender="75.74" data-glyph-descender="-22.722"></path><path d="M31.05 0.61L16.36 0.61L34.69-19.47L24.62-36.51L26.51-50.29L37.34-50.29L35.83-39.69L43.63-27.11L55.06-39.69L56.58-50.29L67.41-50.29L65.52-36.51L50.37-19.62L63.02 0.61L49.53 0.61L41.88-11.44L31.05 0.61ZM23.71-53.70L22.42-44.54L16.13 0.61L2.27 0.61L8.18-41.88L5.30-41.35L6.59-50.52L23.71-53.70ZM40.52-40.90L41.73-49.46L39.23-52.34L52.72-52.34L51.12-40.90L40.52-40.90Z" transform="translate(418.0848 302.96) skewX(0)" fill="#0063dc" stroke="#0063dc" stroke-width="0.126" data-glyph-w="69.6808" data-glyph-h="98.462" data-glyph-ascender="75.74" data-glyph-descender="-22.722"></path><path d="M68.09-30.60L57.49-30.60L56.88-33.33L56.50-29.46L41.35-29.46L41.88-33.02L40.60-30.52L30.22-30.52L40.98-51.05L38.55-53.85L62.26-53.85L68.09-30.60ZM8.18 0.68L13.56-37.42L7.04-37.42L8.10-44.61L14.54-44.61L15.53-51.50L13.78-53.70L26.05-53.70L24.77-44.61L31.13-44.61L30.07-37.42L23.78-37.42L18.40 0.68L8.18 0.68ZM57.87-27.34L66.58-27.34L59.83-7.57L65.14-7.57L64.15-0.53L26.28-0.53L27.27-7.57L51.20-7.57L57.87-27.34ZM31.43-27.34L40.14-27.34L39.99-9.32L31.28-9.32L31.43-27.34ZM6.36-2.04L1.59-2.04L7.50-34.92L12.27-34.92L6.36-2.04ZM42.79-27.34L51.50-27.34L50.59-9.39L41.96-9.39L42.79-27.34ZM26.51-6.36L21.66-6.36L24.46-34.92L29.24-34.92L26.51-6.36ZM49.00-47.34L43.47-36.36L56.27-36.36L54.08-47.34L49.00-47.34Z" transform="translate(487.76559999999995 302.96) skewX(0)" fill="#0063dc" stroke="#0063dc" stroke-width="0.126" data-glyph-w="69.6808" data-glyph-h="98.462" data-glyph-ascender="75.74" data-glyph-descender="-22.722"></path><path d="M7.57-35.83L65.14-35.83L64.15-28.63L42.57-28.63L41.66-22.19L60.36-22.19L59.30-15.00L40.60-15.00L39.69-8.48L64.15-8.48L63.09-0.61L29.31-0.61L15.15-4.62L14.16-0.61L1.21-0.61L6.82-22.49L5.23-25.07L20.45-25.07L17.19-12.57L25.52-10.22L28.18-28.63L6.59-28.63L7.57-35.83ZM51.05-38.02L51.65-42.34L22.87-42.34L22.27-38.02L6.44-38.02L8.03-49.53L31.05-49.53L31.28-51.05L28.78-53.85L46.05-53.85L45.44-49.53L68.47-49.53L66.88-38.02L51.05-38.02Z" transform="translate(557.4463999999999 302.96) skewX(0)" fill="#0063dc" stroke="#0063dc" stroke-width="0.126" data-glyph-w="69.6808" data-glyph-h="98.462" data-glyph-ascender="75.74" data-glyph-descender="-22.722"></path><path d="M69.45-53.93L68.39-46.73L34.54-45.44L28.78-41.58L64.83-41.58L63.70-33.48L33.78-33.48L23.93-27.19L49.16-27.19L48.85-30.14L63.24-30.14L64.45-18.56L50.06-18.56L49.91-20.00L41.66-20.00L39.46-4.32Q39.08-2.12 37.42-0.72Q35.75 0.68 33.55 0.68L33.55 0.68L18.56 0.68L25.30-6.36L27.27-20.00L7.12-20.00L8.10-27.19L18.71-33.55L9.01-33.55L10.15-41.43L15.83-44.76L7.65-44.46L8.79-52.41L69.45-53.93ZM58.40-16.44L63.55-2.04L50.59-2.04L45.44-16.44L58.40-16.44ZM22.34-16.44L13.18-2.04L0.23-2.04L9.47-16.44L22.34-16.44Z" transform="translate(627.1271999999999 302.96) skewX(0)" fill="#0063dc" stroke="#0063dc" stroke-width="0.126" data-glyph-w="69.6808" data-glyph-h="98.462" data-glyph-ascender="75.74" data-glyph-descender="-22.722"></path><path d="M53.85-36.58L63.92-36.58L66.42-23.63L56.35-23.63L56.05-24.99L27.57-23.63L28.55-30.83L35.90-42.34L28.71-42.34L29.77-49.53L41.88-49.53L42.11-50.97L39.69-53.85L56.96-53.85L56.27-49.53L68.62-49.53L67.56-42.34L50.29-42.34L43.40-31.58L54.68-32.11L53.85-36.58ZM5.15-27.95L6.13-35.14L15.91-50.52L14.31-52.41L30.14-52.41L19.09-35.14L27.72-35.14L16.66-17.87L25.30-17.87L24.31-10.68L2.73-10.68L3.71-17.87L10.15-27.95L5.15-27.95ZM46.05-22.19L57.56-22.19L55.74-9.24L61.50-9.24L64.76-12.12L63.17-0.61L43.02-0.61L46.05-22.19ZM31.66-22.19L43.17-22.19L35.83-0.61L24.31-0.61L31.66-22.19ZM23.86-7.80L22.87-0.61L1.06 0.68L2.12-6.36L23.86-7.80Z" transform="translate(696.8079999999999 302.96) skewX(0)" fill="#0063dc" stroke="#0063dc" stroke-width="0.126" data-glyph-w="69.6808" data-glyph-h="98.462" data-glyph-ascender="75.74" data-glyph-descender="-22.722"></path></g></svg></g>
        </g>
  </svg>