<?xml version="1.0" standalone="no"?><!DOCTYPE svg PUBLIC "-//W3C//DTD SVG 1.1//EN" "http://www.w3.org/Graphics/SVG/1.1/DTD/svg11.dtd"><svg t="1671262113647" class="icon" viewBox="0 0 1024 1024" version="1.1" xmlns="http://www.w3.org/2000/svg" p-id="6719" xmlns:xlink="http://www.w3.org/1999/xlink" width="200" height="200"><path d="M896 160v106.666667c0 17.706667-14.293333 32-32 32s-32-14.293333-32-32v-29.44L609.28 459.946667c-6.186667 6.293333-14.4 9.386667-22.613333 9.386666s-16.426667-3.093333-22.613334-9.386666L394.666667 290.56 182.613333 502.613333c-6.186667 6.293333-14.4 9.386667-22.613333 9.386667s-16.426667-3.093333-22.613333-9.386667a32 32 0 0 1 0-45.226666l234.666666-234.666667a32 32 0 0 1 45.226667 0L586.666667 392.106667 786.773333 192H757.333333c-17.706667 0-32-14.293333-32-32s14.293333-32 32-32h106.666667c2.026667 0 4.053333 0.213333 6.08 0.64 0.746667 0.106667 1.493333 0.213333 2.24 0.533333 2.346667 0.533333 4.586667 1.386667 6.613333 2.56 0.853333 0.426667 1.813333 0.96 2.666667 1.6 0.96 0.533333 1.813333 1.173333 2.56 1.92 1.706667 1.28 3.306667 2.88 4.586667 4.586667 0.746667 0.746667 1.386667 1.6 1.92 2.56 0.64 0.853333 1.173333 1.813333 1.6 2.666667 1.173333 2.026667 2.026667 4.266667 2.56 6.613333 0.32 0.746667 0.426667 1.493333 0.533333 2.24 0.426667 2.026667 0.64 4.053333 0.64 6.08zM224 896a32 32 0 0 1-32-32V629.333333a32 32 0 1 1 64 0v234.666667a32 32 0 0 1-32 32z" p-id="6720"></path><path d="M416 896a32 32 0 0 1-32-32V480a32 32 0 1 1 64 0v384a32 32 0 0 1-32 32zM608 896a32 32 0 0 1-32-32V586.666667a32 32 0 1 1 64 0v277.333333a32 32 0 0 1-32 32zM800 896a32 32 0 0 1-32-32V416a32 32 0 1 1 64 0v448a32 32 0 0 1-32 32z" p-id="6721"></path></svg>